<svg width="92" height="92" viewBox="0 0 92 92" fill="none" xmlns="http://www.w3.org/2000/svg">
<path d="M46 86.2656C39.2708 86.2656 32.8173 83.5924 28.0591 78.8342C23.3009 74.076 20.6277 67.6225 20.6277 60.8934V30.4467C20.6277 23.7175 23.3009 17.264 28.0591 12.5058C32.8173 7.74759 39.2708 5.07445 46 5.07445C52.7291 5.07445 59.1826 7.74759 63.9409 12.5058C68.6991 17.264 71.3722 23.7175 71.3722 30.4467V60.8934C71.3722 64.2253 70.7159 67.5246 69.4409 70.6029C68.1658 73.6812 66.2969 76.4782 63.9409 78.8342C61.5848 81.1903 58.7878 83.0592 55.7095 84.3342C52.6312 85.6093 49.3319 86.2656 46 86.2656ZM46 10.1489C40.6167 10.1489 35.4538 12.2874 31.6473 16.094C27.8407 19.9006 25.7022 25.0634 25.7022 30.4467V60.8934C25.7022 66.2767 27.8407 71.4395 31.6473 75.2461C35.4538 79.0526 40.6167 81.1911 46 81.1911C51.3833 81.1911 56.5461 79.0526 60.3527 75.2461C64.1593 71.4395 66.2978 66.2767 66.2978 60.8934V30.4467C66.2978 25.0634 64.1593 19.9006 60.3527 16.094C56.5461 12.2874 51.3833 10.1489 46 10.1489Z" fill="white"/>
<path d="M45.9999 38.0584C45.327 38.0584 44.6817 37.791 44.2058 37.3152C43.73 36.8394 43.4627 36.1941 43.4627 35.5211V25.3722C43.4627 24.6993 43.73 24.054 44.2058 23.5782C44.6817 23.1023 45.327 22.835 45.9999 22.835C46.6728 22.835 47.3182 23.1023 47.794 23.5782C48.2698 24.054 48.5372 24.6993 48.5372 25.3722V35.5211C48.5372 36.1941 48.2698 36.8394 47.794 37.3152C47.3182 37.791 46.6728 38.0584 45.9999 38.0584Z" fill="white"/>
</svg>
